<mxfile host="Electron" modified="2023-08-23T08:58:07.784Z" agent="Mozilla/5.0 (Windows NT 10.0; Win64; x64) AppleWebKit/537.36 (KHTML, like Gecko) draw.io/21.6.8 Chrome/114.0.5735.289 Electron/25.5.0 Safari/537.36" etag="Hyr0bStsDBVG6JTSYh1y" version="21.6.8" type="device">
  <diagram name="Seite-1" id="cW4oBI6mVUXUtHNb4IoI">
    <mxGraphModel dx="434" dy="277" grid="1" gridSize="10" guides="1" tooltips="1" connect="1" arrows="1" fold="1" page="1" pageScale="1" pageWidth="827" pageHeight="1169" math="0" shadow="0">
      <root>
        <mxCell id="0" />
        <mxCell id="1" parent="0" />
        <mxCell id="axpCuNk4wsnUUoaNCGdF-1" value="Person" style="swimlane;fontStyle=1;align=center;verticalAlign=top;childLayout=stackLayout;horizontal=1;startSize=26;horizontalStack=0;resizeParent=1;resizeParentMax=0;resizeLast=0;collapsible=1;marginBottom=0;whiteSpace=wrap;html=1;" vertex="1" parent="1">
          <mxGeometry x="320" y="499" width="180" height="180" as="geometry" />
        </mxCell>
        <mxCell id="axpCuNk4wsnUUoaNCGdF-2" value="- wutLevel: int&lt;br&gt;- appetitLevel: int" style="text;strokeColor=none;fillColor=none;align=left;verticalAlign=top;spacingLeft=4;spacingRight=4;overflow=hidden;rotatable=0;points=[[0,0.5],[1,0.5]];portConstraint=eastwest;whiteSpace=wrap;html=1;" vertex="1" parent="axpCuNk4wsnUUoaNCGdF-1">
          <mxGeometry y="26" width="180" height="44" as="geometry" />
        </mxCell>
        <mxCell id="axpCuNk4wsnUUoaNCGdF-3" value="" style="line;strokeWidth=1;fillColor=none;align=left;verticalAlign=middle;spacingTop=-1;spacingLeft=3;spacingRight=3;rotatable=0;labelPosition=right;points=[];portConstraint=eastwest;strokeColor=inherit;" vertex="1" parent="axpCuNk4wsnUUoaNCGdF-1">
          <mxGeometry y="70" width="180" height="8" as="geometry" />
        </mxCell>
        <mxCell id="axpCuNk4wsnUUoaNCGdF-4" value="+ Provozieren(): void&lt;br&gt;+ Ausrasten(): void&lt;br&gt;+ EssenGeben(): void&lt;br&gt;+ EssenVerweigerm(): void&lt;br&gt;+ ArbeitsauftrgaGeben(): void" style="text;strokeColor=none;fillColor=none;align=left;verticalAlign=top;spacingLeft=4;spacingRight=4;overflow=hidden;rotatable=0;points=[[0,0.5],[1,0.5]];portConstraint=eastwest;whiteSpace=wrap;html=1;" vertex="1" parent="axpCuNk4wsnUUoaNCGdF-1">
          <mxGeometry y="78" width="180" height="102" as="geometry" />
        </mxCell>
      </root>
    </mxGraphModel>
  </diagram>
</mxfile>
